<svg width="390" height="201" viewBox="0 0 390 201" fill="none" xmlns="http://www.w3.org/2000/svg">
<path d="M390 196.447C385.53 198.901 380.521 200.493 375.195 201H367.793C354.505 199.73 343.189 191.707 337.315 180.401C331.797 191.23 321.306 199.099 308.851 201H297.135C284.92 199.135 274.595 191.531 268.996 181.024C263.397 191.53 253.072 199.135 240.858 201H229.135C217.447 199.213 207.491 192.17 201.75 182.359C196.009 192.17 186.053 199.213 174.365 201H162.636C150.777 199.187 140.699 191.963 135 181.927C129.301 191.963 119.223 199.187 107.364 201H95.6377C82.6536 199.016 71.8051 190.545 66.5 178.999C61.1949 190.545 50.3464 199.016 37.3623 201H25.6309C15.0563 199.383 5.89974 193.461 0 185.082V0H390V196.447Z" fill="#054FB9"/>
</svg>
