<svg width="390" height="94" viewBox="0 0 390 94" fill="none" xmlns="http://www.w3.org/2000/svg">
<path d="M390 89.4473C385.53 91.9012 380.521 93.4928 375.195 94H367.793C354.505 92.7303 343.189 84.7069 337.315 73.4014C331.797 84.2297 321.306 92.0985 308.851 94H297.135C284.92 92.1349 274.595 84.5306 268.996 74.0244C263.397 84.5303 253.072 92.1348 240.858 94H229.135C217.447 92.2131 207.491 85.1698 201.75 75.3594C196.009 85.1699 186.053 92.2131 174.365 94H162.636C150.777 92.1872 140.699 84.963 135 74.9268C129.301 84.963 119.223 92.1872 107.364 94H95.6377C82.6536 92.016 71.8051 83.5454 66.5 71.999C61.1949 83.5454 50.3464 92.016 37.3623 94H25.6309C15.0563 92.3825 5.89974 86.4614 0 78.082V0H390V89.4473Z" fill="#2E7DEF"/>
</svg>
