<svg width="390" height="190" viewBox="0 0 390 190" fill="none" xmlns="http://www.w3.org/2000/svg">
<path d="M390 185.447C385.53 187.901 380.521 189.493 375.195 190H367.793C354.505 188.73 343.189 180.707 337.315 169.401C331.797 180.23 321.306 188.099 308.851 190H297.135C284.92 188.135 274.595 180.531 268.996 170.024C263.397 180.53 253.072 188.135 240.858 190H229.135C217.447 188.213 207.491 181.17 201.75 171.359C196.009 181.17 186.053 188.213 174.365 190H162.636C150.777 188.187 140.699 180.963 135 170.927C129.301 180.963 119.223 188.187 107.364 190H95.6377C82.6536 188.016 71.8051 179.545 66.5 167.999C61.1949 179.545 50.3464 188.016 37.3623 190H25.6309C15.0563 188.383 5.89974 182.461 0 174.082V0H390V185.447Z" fill="#FFCC00"/>
</svg>
