<svg width="390" height="291" viewBox="0 0 390 291" fill="none" xmlns="http://www.w3.org/2000/svg">
<path d="M390 285.447C384.51 288.462 378.206 290.178 371.5 290.178C356.629 290.178 343.728 281.745 337.315 269.401C330.951 281.89 317.971 290.444 302.993 290.444C288.265 290.444 275.471 282.174 268.996 270.024C262.521 282.173 249.728 290.444 235 290.444C220.818 290.444 208.43 282.775 201.75 271.359C195.07 282.775 182.682 290.444 168.5 290.444C154.14 290.444 141.618 282.581 135 270.927C128.382 282.581 115.86 290.444 101.5 290.444C85.9677 290.444 72.5861 281.245 66.5 267.999C60.4139 281.245 47.0323 290.444 31.5 290.444C18.4778 290.444 6.96739 283.978 0 274.082V0H390V285.447Z" fill="url(#paint0_linear_293_2514)"/>
<defs>
<linearGradient id="paint0_linear_293_2514" x1="195" y1="0" x2="195" y2="290.444" gradientUnits="userSpaceOnUse">
<stop stop-color="#044DB8"/>
<stop offset="1" stop-color="#0959B4"/>
</linearGradient>
</defs>
</svg>
